Coordinates
version=1
nRows=8
nColumns=40
inDegrees=yes

Units are S.I. units (second, meters, Newtons, ...)
If the header above contains a line with 'inDegrees', this indicates whether rotational values are in degrees (yes) or radians (no).

endheader
time	pelvis_tilt	pelvis_list	pelvis_rotation	pelvis_tx	pelvis_ty	pelvis_tz	hip_flexion_r	hip_adduction_r	hip_rotation_r	knee_angle_r	knee_angle_r_beta	ankle_angle_r	subtalar_angle_r	mtp_angle_r	hip_flexion_l	hip_adduction_l	hip_rotation_l	knee_angle_l	knee_angle_l_beta	ankle_angle_l	subtalar_angle_l	mtp_angle_l	lumbar_extension	lumbar_bending	lumbar_rotation	arm_flex_r	arm_add_r	arm_rot_r	elbow_flex_r	pro_sup_r	wrist_flex_r	wrist_dev_r	arm_flex_l	arm_add_l	arm_rot_l	elbow_flex_l	pro_sup_l	wrist_flex_l	wrist_dev_l
      3.17500000	      8.39113081	     -2.89700950	     -2.66452079	     -0.31357936	      0.86090797	     -1.01967602	     56.27729572	      2.47828727	     -4.46700405	     23.65849271	      0.41291859	     -2.50514363	      0.00000000	      0.00000000	     35.49561018	     -3.94216303	     -8.30238345	     82.46797767	      1.43933774	     35.20527167	      0.00000000	      0.00000000	    -21.31490472	     -4.09472705	      0.21367035	     89.92032045	     -4.65440575	     30.81444691	     30.67164757	     84.93068107	      0.00000000	      0.00000000	     89.94959751	    -16.87652176	     30.01710042	     39.26119732	     84.61237594	      0.00000000	      0.00000000
      3.18000000	      8.40242088	     -2.86575065	     -2.66385663	     -0.31358823	      0.86058143	     -1.01969767	     56.32243961	      2.43269109	     -4.49157136	     23.65570177	      0.41286988	     -2.50508482	      0.00000000	      0.00000000	     35.50801114	     -3.90919742	     -8.32574340	     82.51767177	      1.44020506	     35.26364641	      0.00000000	      0.00000000	    -21.33378084	     -4.10462395	      0.18740851	     89.92079733	     -4.63251758	     30.78834296	     30.60846561	     85.08439296	      0.00000000	      0.00000000	     89.94960394	    -16.89020122	     29.95361572	     39.36465222	     84.77214571	      0.00000000	      0.00000000
      3.18500000	      8.36824274	     -2.80991031	     -2.65902465	     -0.31365580	      0.86014845	     -1.01972166	     56.41246766	      2.37289472	     -4.47130469	     23.61668540	      0.41218892	     -2.58960887	      0.00000000	      0.00000000	     35.58226048	     -3.84833381	     -8.35858018	     82.58041522	      1.44130014	     35.54364952	      0.00000000	      0.00000000	    -21.31818140	     -4.13186167	      0.16290693	     89.92142904	     -4.62871534	     30.68959714	     30.65033752	     85.08126773	      0.00000000	      0.00000000	     89.94957256	    -16.86461800	     29.82059575	     39.41921752	     84.73318111	      0.00000000	      0.00000000
      3.19000000	      8.41164730	     -2.82769901	     -2.64334717	     -0.31368273	      0.85999409	     -1.01968234	     56.35353787	      2.35087681	     -4.58234195	     23.44904734	      0.40926308	     -2.62396206	      0.00000000	      0.00000000	     35.56623700	     -3.84718190	     -8.30311315	     82.59859017	      1.44161736	     35.18168213	      0.00000000	      0.00000000	    -21.39516100	     -4.10193335	      0.08735198	     89.92113792	     -4.32341983	     30.32907812	     30.37972085	     81.89675038	      0.00000000	      0.00000000	     89.94927476	    -16.74316483	     29.53633677	     39.34160249	     81.61311884	      0.00000000	      0.00000000
      3.19500000	      8.33054357	     -2.83298568	     -2.60716671	     -0.31360589	      0.85940751	     -1.01974379	     56.55896802	      2.31772565	     -4.53719038	     23.60077860	      0.41191129	     -2.50399178	      0.00000000	      0.00000000	     35.73602061	     -3.84116314	     -8.27574157	     82.74452710	      1.44416444	     35.16634610	      0.00000000	      0.00000000	    -21.29761411	     -4.06090737	      0.09242464	     89.92272348	     -4.78189801	     31.61374944	     30.77800546	     83.59409128	      0.00000000	      0.00000000	     89.94971273	    -16.84065836	     29.94571710	     39.48367986	     83.00796450	      0.00000000	      0.00000000
      3.20000000	      8.37636664	     -2.80112127	     -2.66585511	     -0.31364490	      0.85925116	     -1.01966738	     56.54560118	      2.34401864	     -4.47807524	     23.54575057	      0.41095087	     -2.64025243	      0.00000000	      0.00000000	     35.67428863	     -3.81796283	     -8.32956383	     82.75165890	      1.44428891	     35.44409201	      0.00000000	      0.00000000	    -21.37537278	     -4.08728573	      0.15396134	     89.92171275	     -4.64548747	     30.69555348	     30.69617902	     85.10344286	      0.00000000	      0.00000000	     89.94970903	    -16.81479197	     29.56096875	     39.59486109	     84.73266547	      0.00000000	      0.00000000
      3.20500000	      8.41995249	     -2.71101312	     -2.68666673	     -0.31368765	      0.85905330	     -1.01970852	     56.55907002	      2.29080101	     -4.39321303	     23.53231471	      0.41071637	     -2.64092833	      0.00000000	      0.00000000	     35.63621671	     -3.71765345	     -8.38663524	     82.76195204	      1.44446856	     35.46628308	      0.00000000	      0.00000000	    -21.44152401	     -4.16774652	      0.15149200	     89.92210972	     -4.68967244	     30.75364971	     30.78031756	     85.00275278	      0.00000000	      0.00000000	     89.94963292	    -16.77042925	     29.43792197	     39.61534842	     84.66200376	      0.00000000	      0.00000000
      3.21000000	      8.29218717	     -2.77635821	     -2.65340656	     -0.31377263	      0.85840489	     -1.01973417	     56.75236885	      2.30554901	     -4.46019960	     23.50569912	      0.41025184	     -2.69650440	      0.00000000	      0.00000000	     35.86008220	     -3.74364879	     -8.28604587	     82.87495789	      1.44644088	     35.52408885	      0.00000000	      0.00000000	    -21.32207312	     -4.06132166	      0.14189059	     89.92224196	     -4.66835038	     30.57334140	     30.74980733	     85.04853871	      0.00000000	      0.00000000	     89.94976464	    -16.75726510	     29.39888656	     39.71399411	     84.81291005	      0.00000000	      0.00000000
